<?xml version="1.0" encoding="UTF-8" standalone="no"?>
<!-- Created with Inkscape (http://www.inkscape.org/) -->

<svg
   xmlns:svg="http://www.w3.org/2000/svg"
   xmlns="http://www.w3.org/2000/svg"
   version="1.1"
   width="200"
   height="150"
   id="svg4222">
  <defs
     id="defs4224" />
  <g
     transform="translate(0,-902.36218)"
     id="layer1">
    <g
       transform="matrix(0.26326328,0,0,0.26326328,0.0080002,968.4319)"
       id="g4188">
      <path
         d="m 110.90625,226.65625 0,43.375 12.5,0 0,-11.40625 23.375,0 c 1.97298,0 3.9375,1.84567 3.9375,3.1875 l 0,8.40625 13.375,0 0,-10.71875 c 0,-2.44602 -3.14019,-6.1479 -8.125,-6.78125 3.61915,0.0299 7.96875,-2.25248 7.96875,-5.71875 l 0,-11.96875 c 0,-2.93245 -3.83063,-8.21875 -7.5,-8.21875 l -45.53125,-0.15625 z M 149.25,236.875 c 1.15531,0 2.28125,1.11673 2.28125,2.28125 l 0,6.34375 c 0,1.32838 -0.93814,2.5625 -2.59375,2.5625 l -25,0 0,-11.0625 25.3125,-0.125 z"
         id="path4038"
         style="fill:#656868;fill-opacity:1;stroke:none" />
      <path
         d="M 204.1875,226.5625 180.0625,270 l 14.65625,0 3.90625,-7.3125 28.28125,0 4.3125,7.4375 14.625,0 -23.46875,-43.5625 -18.1875,0 z m 8.5625,10.9375 8.96875,16.09375 -18.1875,0 L 212.75,237.5 z"
         id="path4043"
         style="fill:#656868;fill-opacity:1;stroke:none" />
      <path
         d="m 262.125,226.6875 0,43.5625 46.28125,-0.0625 c 4.04647,0 11.5625,-3.54333 11.5625,-11.3125 l 0,-20.6875 c 0,-7.0681 -6.63627,-11.5 -12.75,-11.5 l -45.09375,0 z m 13.53125,9.84375 26.15625,0.0937 c 2.92016,0 5.09375,2.54009 5.09375,5.09375 l 0,13.5625 c 0,3.00183 -2.89621,5 -5,5 l -26.25,0 0,-23.75 z"
         id="path4048"
         style="fill:#656868;fill-opacity:1;stroke:none" />
      <path
         d="m 339.03245,226.94128 0,43.05776 13.76333,0 0,-43.05776 -13.76333,0 z"
         id="path4053"
         style="fill:#656868;fill-opacity:1;stroke:none" />
      <path
         d="m 380.8125,227.0625 c -4.85474,0 -8.6875,4.92393 -8.6875,11 l 0,22.96875 c 0,4.56109 3.85685,8.46875 9.21875,8.46875 l 40.78125,0 c 4.97816,0 9.71875,-3.41834 9.71875,-9.09375 l 0,-22.34375 c 0,-5.39138 -3.10034,-11 -10.21875,-11 l -40.8125,0 z m 9.125,9.625 22.53125,0 c 3.93094,0 5.65625,3.08526 5.65625,6.0625 l 0,12.34375 c 0,3.13408 -2.62596,5.03125 -5.375,5.03125 l -22.53125,0 c -2.96095,0 -5.09375,-2.16877 -5.09375,-4.6875 l 0,-12.6875 c 0,-3.35534 2.13161,-6.0625 4.8125,-6.0625 z"
         id="path4055"
         style="fill:#656868;fill-opacity:1;stroke:none" />
      <path
         d="m 450.02296,226.85199 0,43.14705 45.7094,0 0,-9.34392 -33.4613,0 c 0,0 0,-32.48272 0,-33.84011 -2.39994,0 -12.2481,0.037 -12.2481,0.037 z"
         id="path4080"
         style="fill:#f26722;fill-opacity:1;stroke:none" />
      <path
         d="m 534.8058,226.65236 -24.125,43.4375 14.65625,0 3.90625,-7.3125 28.28125,0 4.3125,7.4375 14.625,0 -23.46875,-43.5625 -18.1875,0 z m 8.5625,10.9375 8.96875,16.09375 -18.1875,0 9.21875,-16.09375 z"
         id="path4043-8"
         style="fill:#f26722;fill-opacity:1;stroke:none" />
      <path
         d="m 593.03125,227 0,43.21875 48.75,0 c 2.35725,0 6.96875,-2.90342 6.96875,-7.15625 l 0,-7.96875 c 0,-3.65363 -4.75123,-6.65625 -8.03125,-6.65625 3.0347,0 6.6875,-3.56667 6.6875,-6.4375 l 0,-6.4375 c 0,-4.68366 -3.90805,-8.5625 -9.1875,-8.5625 l -45.1875,0 z m 12.9375,9.78125 24.9375,0 c 3.89805,0 3.35794,7.90625 0,7.90625 l -24.9375,0 0,-7.90625 z m 0.5625,15.875 26.4375,0 c 3.89805,0 3.35794,7.90625 0,7.90625 l -26.4375,0 0,-7.90625 z"
         id="path4106"
         style="fill:#f26722;fill-opacity:1;stroke:none" />
    </g>
    <g
       transform="matrix(1.488101,0,0,1.488101,-82.992576,413.02706)"
       id="g4184">
      <path
         d="m 119.65625,336.34375 c -17.71809,0 -32.09375,14.37566 -32.09375,32.09375 0,17.71809 14.37566,32.0625 32.09375,32.0625 7.64057,0 14.64616,-2.6658 20.15625,-7.125 -2.67384,1.56736 -5.7705,2.5 -9.09375,2.5 -9.964,0 -18.03125,-8.0985 -18.03125,-18.0625 0,-9.964 8.06725,-18.03125 18.03125,-18.03125 9.964,0 18.03125,8.06725 18.03125,18.03125 0,2.24622 -0.43743,4.39146 -1.1875,6.375 2.63506,-4.65789 4.15625,-10.01651 4.15625,-15.75 0,-17.71809 -14.34441,-32.09375 -32.0625,-32.09375 z"
         id="path4134"
         style="fill:#f26722;fill-opacity:1;stroke:none" />
      <path
         d="m 132.90625,371.8125 c -4.46345,0 -8.09375,3.6303 -8.09375,8.09375 0,3.80549 2.64581,6.98562 6.1875,7.84375 l 0,-11.4375 3.05357,0 0,1.59375 c 0.43248,-0.83607 1.43239,-1.65625 2.10938,-1.65625 l 1.8058,0 0,2.75 c -1.55143,0 -2.58422,0.15712 -3.3125,0.9375 l 0,7.84375 c 3.61964,-0.80145 6.3125,-4.01422 6.3125,-7.875 0,-4.46345 -3.59905,-8.09375 -8.0625,-8.09375 z"
         id="path4134-1-2"
         style="fill:#656868;fill-opacity:1;stroke:none" />
    </g>
  </g>
</svg>
